Coordinates
version=1
nRows=29
nColumns=24
inDegrees=yes

Units are S.I. units (second, meters, Newtons, ...)
Angles are in degrees.

endheader
time	pelvis_tilt	pelvis_list	pelvis_rotation	pelvis_tx	pelvis_ty	pelvis_tz	hip_flexion_r	hip_adduction_r	hip_rotation_r	knee_angle_r	ankle_angle_r	subtalar_angle_r	mtp_angle_r	hip_flexion_l	hip_adduction_l	hip_rotation_l	knee_angle_l	ankle_angle_l	subtalar_angle_l	mtp_angle_l	lumbar_extension	lumbar_bending	lumbar_rotation
      1.55500000	     17.34242346	      6.71489209	      3.76820289	     -0.53566021	      0.92022994	      0.29834033	      7.82502360	     -5.47631531	     -4.55512523	    -10.08899866	     12.31964205	      4.37531472	     41.10515879	    -34.55827982	      7.71598322	     -0.69636646	    -14.10565243	     28.31143790	     12.65303266	     21.39274281	    -35.77771592	     -2.85007139	     -7.02846530
      1.56000000	     17.40280651	      6.62656447	      3.78632772	     -0.52774405	      0.91940079	      0.29852600	      7.79674454	     -5.27181411	     -4.05754256	    -11.05314091	     12.60104090	      4.21267725	     40.78176942	    -34.77651229	      7.50254035	     -0.83816810	    -14.78940325	     28.04852592	     12.77616049	     23.37772839	    -35.71693755	     -2.71690332	     -7.03018318
      1.56500000	     17.36006620	      6.53051702	      4.04257117	     -0.51980447	      0.91856862	      0.29826454	      7.83302230	     -5.11140864	     -4.12614297	    -12.07528391	     12.64342758	      4.51822301	     40.89137373	    -34.80661857	      7.17555162	     -0.74032481	    -15.65217116	     27.98175124	     12.96517527	     23.66185692	    -35.55300833	     -2.44788875	     -7.22357569
      1.57000000	     17.47194445	      6.52288888	      4.27176350	     -0.51209693	      0.91805126	      0.29783019	      7.76562301	     -5.04357303	     -4.39999308	    -13.14199575	     11.75429266	      4.48064889	     43.56224813	    -34.99342995	      6.96092575	     -0.40592913	    -16.47880055	     27.54959067	     12.66196620	     26.08239104	    -35.57082891	     -2.24349399	     -7.36954957
      1.57500000	     17.47061838	      6.36453663	      4.45602630	     -0.50451779	      0.91759409	      0.29761646	      7.83603031	     -4.78810893	     -4.48050624	    -14.03159781	      9.69400888	      3.51684682	     46.39814008	    -34.95711407	      6.61768172	     -0.37744698	    -17.44454433	     27.23368311	     12.75300329	     27.85061364	    -35.48387807	     -1.93285429	     -7.43238287
      1.58000000	     17.40604201	      6.17160499	      4.72630455	     -0.49721517	      0.91719211	      0.29707783	      8.00058022	     -4.57096279	     -4.60167750	    -14.87438116	      8.03025037	      2.96858206	     46.36392747	    -34.75835527	      6.24792664	     -0.10417319	    -18.56097955	     26.99719157	     12.72977021	     28.19637416	    -35.34712379	     -1.54412087	     -7.39831981
      1.58500000	     17.18695375	      5.98413883	      4.86768892	     -0.48986097	      0.91677424	      0.29676256	      8.41348633	     -4.41177634	     -4.55515367	    -15.79171039	      7.41137857	      2.89173453	     46.81502496	    -34.36345842	      5.99186768	      0.18708724	    -19.68846459	     26.41756269	     12.34303579	     30.79905857	    -35.05159403	     -1.23750415	     -7.34981752
      1.59000000	     17.11121453	      5.76450610	      5.02788982	     -0.48250593	      0.91662053	      0.29644947	      8.64610061	     -4.21608987	     -4.59389990	    -16.75474213	      7.56000672	      3.15476183	     48.20517526	    -34.09084161	      5.68425040	      0.47562853	    -20.85557835	     25.80236947	     11.81515180	     32.84966924	    -34.90045098	     -0.87439728	     -7.22055502
      1.59500000	     16.93791515	      5.51768632	      4.99351937	     -0.47498838	      0.91642121	      0.29633614	      9.01365467	     -3.97609737	     -4.46594581	    -17.80199408	      7.68169777	      3.40783560	     49.10124939	    -33.61294405	      5.45584186	      0.42034564	    -22.20443985	     25.09483363	     11.54431450	     35.03995967	    -34.61773847	     -0.59936916	     -6.94993070
      1.60000000	     16.88642933	      5.35423274	      5.05605990	     -0.46761822	      0.91640262	      0.29609850	      9.30118046	     -3.85805357	     -4.58875718	    -19.08142660	      7.62260475	      3.30800796	     49.65591924	    -33.23809982	      5.26620373	      0.59153253	    -23.57393648	     24.31092193	     11.13488554	     37.68986851	    -34.50774842	     -0.33300773	     -6.79276325
      1.60500000	     16.68451374	      5.18784515	      5.12858080	     -0.46005961	      0.91624248	      0.29600322	      9.72209992	     -3.72820953	     -4.55760950	    -20.39370624	      7.54852457	      2.47377208	     49.44947318	    -32.55728327	      5.04390163	      0.55633118	    -25.23779594	     23.56867385	     11.04915814	     38.59170267	    -34.21005423	     -0.10109043	     -6.76197357
      1.61000000	     16.63122217	      4.94774826	      5.09526318	     -0.45242168	      0.91627566	      0.29602145	      9.95756151	     -3.49096921	     -4.51508641	    -21.68400917	      7.92738508	      2.04081888	     48.06999501	    -32.01518976	      4.78659040	      0.33682123	    -26.86398113	     22.37961960	     10.59569966	     42.77920543	    -34.06779163	      0.17065653	     -6.47894564
      1.61500000	     16.56307596	      4.71049346	      5.05132006	     -0.44463379	      0.91638399	      0.29601845	     10.13822724	     -3.23205388	     -4.42735376	    -22.85111859	      8.75882150	      2.14632949	     46.75984856	    -31.35602295	      4.51017139	     -0.02060492	    -28.66233626	     21.16599202	     10.41733864	     45.55960394	    -33.90114557	      0.45035926	     -6.22212267
      1.62000000	     16.53023504	      4.37600736	      5.15109987	     -0.43696789	      0.91664998	      0.29593625	     10.14528290	     -2.84728502	     -4.43486248	    -23.72747780	      9.52212383	      2.41753254	     45.63812406	    -30.58372372	      4.03419224	     -0.37037732	    -30.66900571	     19.82523801	     10.24296855	     48.56069452	    -33.75290677	      0.87727377	     -5.99046260
      1.62500000	     16.48549345	      4.04414309	      5.29124428	     -0.42948029	      0.91698774	      0.29591693	     10.12547315	     -2.44260490	     -4.40425353	    -24.50949255	     10.00847115	      2.72921748	     44.42371814	    -29.68185024	      3.52071201	     -0.68548641	    -32.80678235	     18.41853196	     10.07543006	     51.60496548	    -33.62096297	      1.31546190	     -5.87160304
      1.63000000	     16.38282264	      3.68987868	      5.44689900	     -0.42207919	      0.91730687	      0.29597910	     10.11085103	     -1.98789586	     -4.35147099	    -25.17369943	     10.32225382	      2.70754817	     43.18704320	    -28.62166964	      2.95621548	     -0.98393972	    -35.04742244	     16.78630861	      9.84725744	     54.82153414	    -33.43890564	      1.75537208	     -5.69112151
      1.63500000	     16.24981306	      3.29835273	      5.57143995	     -0.41479719	      0.91747833	      0.29603958	     10.10205382	     -1.47384527	     -4.25117770	    -25.74672759	     10.78421055	      2.47154545	     41.77987382	    -27.40096351	      2.36158824	     -1.33727192	    -37.44711634	     15.04832777	      9.67812055	     57.68941568	    -33.22738526	      2.21129277	     -5.47654799
      1.64000000	     15.97173916	      2.83800006	      5.88906375	     -0.40788462	      0.91740445	      0.29593023	     10.18546252	     -0.91405343	     -4.33853101	    -26.15809992	     11.14218945	      1.99559756	     41.35905196	    -25.86408184	      1.66943330	     -1.35276744	    -40.05743769	     13.26222725	      9.51204939	     58.16095625	    -32.88334020	      2.82723970	     -5.46741124
      1.64500000	     15.57623836	      2.42492811	      6.10414936	     -0.40091556	      0.91711519	      0.29582118	     10.39760441	     -0.40085033	     -4.34338777	    -26.60093950	     11.70570495	      1.68957618	     38.97517263	    -24.18708146	      1.10737866	     -1.34528596	    -42.63395265	     11.56896851	      9.07458179	     60.99807909	    -32.41737307	      3.33533629	     -5.36024205
      1.65000000	     15.07630485	      1.89213099	      6.47652681	     -0.39412584	      0.91658596	      0.29564913	     10.66392748	      0.22201028	     -4.49750829	    -26.86926277	     11.98133266	      1.17732499	     38.45328036	    -22.30485005	      0.39017867	     -1.15289309	    -45.35197597	     10.55122924	      9.08656938	     61.08885503	    -31.81401048	      4.00072352	     -5.26668771
      1.65500000	     14.50349476	      1.39714122	      6.89031394	     -0.38760427	      0.91604187	      0.29535389	     10.97117644	      0.78828669	     -4.60049568	    -27.04898378	     12.37631815	      0.86520417	     37.33071564	    -20.28126629	     -0.22788690	     -0.72550952	    -48.11262404	      9.91594935	      8.91662839	     60.42562139	    -31.15655913	      4.65884360	     -5.22375652
      1.66000000	     14.00244355	      0.83392308	      7.30831364	     -0.38115550	      0.91551023	      0.29502799	     11.19187472	      1.46393676	     -4.62785782	    -27.18100344	     12.83206235	      0.38601033	     34.90541451	    -18.33643321	     -0.88610210	     -0.27111309	    -50.83834578	      9.72251424	      8.68302831	     54.70768873	    -30.56221399	      5.37832319	     -5.24118338
      1.66500000	     13.31737568	      0.20635495	      7.73220473	     -0.37473361	      0.91465155	      0.29472316	     11.62887219	      2.17912003	     -4.63156831	    -27.27205113	     13.12524119	     -0.25267265	     33.86007023	    -16.13567192	     -1.53721721	      0.24253163	    -53.60454926	      9.70444207	      7.97021859	     50.21984649	    -29.76028156	      6.12555231	     -5.17216895
      1.67000000	     12.76654077	     -0.41131909	      8.18161484	     -0.36838708	      0.91414986	      0.29420797	     11.82098671	      2.87729835	     -4.66418482	    -27.16738668	     13.39443339	     -0.96263005	     32.95008090	    -14.09834462	     -2.10436272	      0.88734708	    -56.22144641	     10.01002405	      6.96464756	     48.25972263	    -29.10039720	      6.90714307	     -5.20091443
      1.67500000	     12.35817966	     -0.95348456	      8.55646182	     -0.36206295	      0.91394899	      0.29364280	     11.84611240	      3.49862591	     -4.67074278	    -27.03194899	     13.58451606	     -1.58201620	     32.60869591	    -12.29182710	     -2.54885727	      1.47062547	    -58.58293090	     10.44545458	      6.01835422	     48.11696528	    -28.59701314	      7.60197203	     -5.12918503
      1.68000000	     11.88418770	     -1.46046860	      8.93611207	     -0.35574496	      0.91376445	      0.29303355	     11.94927425	      4.04907378	     -4.70837180	    -26.92549696	     13.80701848	     -2.04435489	     32.13216442	    -10.39641474	     -2.93859526	      2.04811766	    -60.84122249	     10.76550251	      5.17475357	     48.07138830	    -28.03079276	      8.27226417	     -5.06330973
      1.68500000	     11.54105882	     -1.91714118	      9.31706153	     -0.34935954	      0.91384936	      0.29247855	     11.88359992	      4.56784223	     -4.75115037	    -26.79374493	     14.05316679	     -2.45549936	     31.57368088	     -8.69084953	     -3.29285293	      2.59419381	    -62.88615874	     11.10896667	      4.03780114	     47.92671157	    -27.57735979	      8.89279373	     -5.13210847
      1.69000000	     11.17838689	     -2.38939126	      9.56574529	     -0.34284119	      0.91401642	      0.29214901	     11.81682591	      5.11700842	     -4.70444925	    -26.60936953	     14.29725489	     -2.76008968	     30.96157219	     -6.98557034	     -3.68209430	      2.92887911	    -64.78395495	     11.38309855	      2.74658380	     47.55116600	    -27.11725788	      9.44362175	     -5.01655350
      1.69500000	     10.96605165	     -2.72978347	      9.85762527	     -0.33638720	      0.91452957	      0.29164309	     11.53392917	      5.49478949	     -4.84355965	    -26.37652795	     14.60581825	     -2.80742822	     30.35285841	     -5.48685200	     -3.95507767	      3.29381127	    -66.48934495	     11.67233077	      1.55156277	     46.82481733	    -26.82715420	      9.91855985	     -5.08259683
